<svg width="48" height="48" viewBox="0 0 48 48" fill="none" xmlns="http://www.w3.org/2000/svg">
<circle cx="24" cy="24" r="23.5" fill="white" stroke="#F5F8FA"/>
<path fill-rule="evenodd" clip-rule="evenodd" d="M12 18.7692C12 17.2398 13.2398 16 14.7692 16H33.2308C34.7602 16 36 17.2398 36 18.7692V29.8462C36 31.3756 34.7602 32.6154 33.2308 32.6154H14.7692C13.2398 32.6154 12 31.3756 12 29.8462V18.7692ZM14.7692 17.8462C14.2594 17.8462 13.8462 18.2594 13.8462 18.7692V29.8462C13.8462 30.356 14.2594 30.7692 14.7692 30.7692H33.2308C33.7406 30.7692 34.1538 30.356 34.1538 29.8462V18.7692C34.1538 18.2594 33.7406 17.8462 33.2308 17.8462H14.7692Z" fill="#8895A7"/>
<path fill-rule="evenodd" clip-rule="evenodd" d="M35.5385 22.6919H12.6924V20.8457H35.5385V22.6919Z" fill="#8895A7"/>
<path fill-rule="evenodd" clip-rule="evenodd" d="M26.7693 28.0012C26.7693 27.4914 27.1826 27.0781 27.6924 27.0781H31.3847C31.8945 27.0781 32.3077 27.4914 32.3077 28.0012C32.3077 28.511 31.8945 28.9243 31.3847 28.9243H27.6924C27.1826 28.9243 26.7693 28.511 26.7693 28.0012Z" fill="#8895A7"/>
</svg>
