<svg width="33" height="26" viewBox="0 0 24 24" fill="none" xmlns="http://www.w3.org/2000/svg">
<path d="M20.9999 12.7706V15.988C20.9999 16.5216 20.7893 17.0332 20.4142 17.4105C20.0391 17.7878 19.5305 18 19.0001 18H4.99988C4.46945 18 3.96081 17.7878 3.58574 17.4105C3.21067 17.0332 3 16.5216 3 15.988V7.01173C3 6.47816 3.21067 5.9665 3.58574 5.58921C3.96081 5.21192 4.46945 5 4.99988 5H19.0001C19.5305 5 20.0391 5.21192 20.4142 5.58921C20.7893 5.9665 20.9999 6.47816 20.9999 7.01173V9.84093" fill="white"/>
<path d="M20.9999 12.7706V15.988C20.9999 16.5216 20.7893 17.0332 20.4142 17.4105C20.0391 17.7878 19.5305 18 19.0001 18H4.99988C4.46945 18 3.96081 17.7878 3.58574 17.4105C3.21067 17.0332 3 16.5216 3 15.988V7.01173C3 6.47816 3.21067 5.9665 3.58574 5.58921C3.96081 5.21192 4.46945 5 4.99988 5H19.0001C19.5305 5 20.0391 5.21192 20.4142 5.58921C20.7893 5.9665 20.9999 6.47816 20.9999 7.01173V9.84093" stroke="#0C9CCC" stroke-width="1.5" stroke-linecap="round" stroke-linejoin="round"/>
<path d="M3 9.83984H20.999" stroke="#0C9CCC" stroke-width="1.5" stroke-linecap="round" stroke-linejoin="round"/>
<path d="M6.67432 13.9941H10.7177" stroke="#0C9CCC" stroke-width="1.5" stroke-linecap="round" stroke-linejoin="round"/>
</svg>
