<svg width="232" height="24" viewBox="0 0 232 24" fill="none" xmlns="http://www.w3.org/2000/svg">
<path d="M3.31501 16.0732C5.01001 16.0732 6.25501 15.1432 6.25501 13.6732C6.25501 12.1282 4.89001 11.7082 3.61501 11.3332C2.31 10.9282 1.83 10.7482 1.83 10.1482C1.83 9.56321 2.43 9.23321 3.19501 9.23321C3.87001 9.23321 4.65001 9.48821 5.40001 9.95321L6.06001 8.85821C5.22001 8.30321 4.20001 7.95821 3.19501 7.95821C1.545 7.95821 0.360001 8.88821 0.375001 10.3132C0.375001 11.5732 1.26 12.0832 3.045 12.5782C4.00501 12.8482 4.80001 13.0732 4.80001 13.7932C4.80001 14.3932 4.20001 14.7982 3.33001 14.7982C2.415 14.7982 1.53 14.4532 0.705001 13.8532L0 14.9182C0.930001 15.6682 2.175 16.0732 3.31501 16.0732Z" fill="#B8C1CB"/>
<path d="M11.5357 14.7532C10.2007 14.7532 9.25572 13.8232 9.06072 12.5332H15.1657C15.1657 9.75821 13.8007 7.95821 11.4307 7.95821C9.28572 7.95821 7.56072 9.66821 7.56072 11.9932C7.56072 14.3782 9.39072 16.0732 11.5507 16.0732C12.6457 16.0732 13.9957 15.6082 14.6857 14.8732L13.7557 13.9132C13.2907 14.3932 12.3457 14.7532 11.5357 14.7532ZM11.4907 9.27821C12.8257 9.27821 13.5607 10.1482 13.7257 11.3482H9.07572C9.31572 10.0882 10.2907 9.27821 11.4907 9.27821Z" fill="#B8C1CB"/>
<path d="M20.547 16.0732C21.702 16.0732 22.707 15.5932 23.457 14.8282L22.452 13.9132C21.972 14.4532 21.282 14.7832 20.562 14.7832C19.137 14.7832 17.967 13.5232 17.967 12.0082C17.967 10.5082 19.137 9.24821 20.547 9.24821C21.267 9.24821 21.942 9.56321 22.407 10.0882L23.412 9.15821C22.677 8.42321 21.672 7.95821 20.562 7.95821C18.342 7.95821 16.467 9.80321 16.467 12.0082C16.467 14.2132 18.342 16.0732 20.547 16.0732Z" fill="#B8C1CB"/>
<path d="M30.3862 8.13821V13.1632C30.2662 14.0782 29.3362 14.7832 28.2562 14.7832C27.2062 14.7832 26.4712 13.9732 26.4712 12.8182V8.13821H25.0162V13.0732C25.0162 14.8282 26.2162 16.0732 27.9262 16.0732C28.9762 16.0732 29.9212 15.5332 30.3862 14.7682V15.8932H31.8712V8.13821H30.3862Z" fill="#B8C1CB"/>
<path d="M35.5857 9.62321V8.13821H34.1007V15.8932H35.5857V11.4832C35.7207 10.1332 36.8607 9.24821 38.4657 9.24821V7.95821C37.1307 7.95821 36.0807 8.60321 35.5857 9.62321Z" fill="#B8C1CB"/>
<path d="M43.4694 14.7532C42.1344 14.7532 41.1894 13.8232 40.9944 12.5332H47.0994C47.0994 9.75821 45.7344 7.95821 43.3644 7.95821C41.2194 7.95821 39.4944 9.66821 39.4944 11.9932C39.4944 14.3782 41.3244 16.0732 43.4844 16.0732C44.5794 16.0732 45.9294 15.6082 46.6194 14.8732L45.6894 13.9132C45.2244 14.3932 44.2794 14.7532 43.4694 14.7532ZM43.4244 9.27821C44.7594 9.27821 45.4944 10.1482 45.6594 11.3482H41.0094C41.2494 10.0882 42.2244 9.27821 43.4244 9.27821Z" fill="#B8C1CB"/>
<path d="M54.7906 5.4082V9.47321C54.1906 8.52821 53.2306 7.95821 52.0306 7.95821C49.9906 7.95821 48.4606 9.63821 48.4606 12.0082C48.4606 14.3932 49.9906 16.0732 52.0306 16.0732C53.2306 16.0732 54.1906 15.5032 54.7906 14.5432V15.8932H56.2606V5.4082H54.7906ZM52.3906 14.7832C50.9656 14.7832 49.9606 13.6282 49.9606 12.0082C49.9606 10.3882 50.9656 9.24821 52.3906 9.24821C53.7856 9.24821 54.7906 10.3882 54.7906 12.0082C54.7906 13.6282 53.7856 14.7832 52.3906 14.7832Z" fill="#B8C1CB"/>
<path d="M67.0856 7.95821C65.8856 7.95821 64.9256 8.52821 64.3256 9.47321V5.4082H62.8556V15.8932H64.3256V14.5432C64.9256 15.5032 65.8856 16.0732 67.0856 16.0732C69.1256 16.0732 70.6556 14.3932 70.6556 12.0082C70.6556 9.63821 69.1256 7.95821 67.0856 7.95821ZM66.7256 14.7832C65.3306 14.7832 64.3256 13.6282 64.3256 12.0082C64.3256 10.3882 65.3306 9.24821 66.7256 9.24821C68.1506 9.24821 69.1556 10.3882 69.1556 12.0082C69.1556 13.6282 68.1506 14.7832 66.7256 14.7832Z" fill="#B8C1CB"/>
<path d="M73.8136 18.5932C74.9236 18.5782 75.7486 17.9932 76.3036 16.5982L79.7236 8.13821H78.1786L75.8236 14.2582L73.3336 8.13821H71.7436L75.0736 15.9382L74.6836 16.7632C74.4286 17.2132 74.0986 17.3632 73.6186 17.3632C73.3186 17.3632 72.9736 17.2882 72.6736 17.1232L72.3436 18.2632C72.7486 18.4732 73.2886 18.5932 73.8136 18.5932Z" fill="#B8C1CB"/>
<path d="M130.937 11.1041V6.10156H134.464V20.2296H131.096L130.933 18.9956C130.445 19.915 129.275 20.4047 127.731 20.4047C127.092 20.4169 126.457 20.2889 125.872 20.0298C125.288 19.7707 124.767 19.3867 124.346 18.9048C123.435 17.91 122.986 16.6228 122.986 15.0499C122.986 13.4769 123.429 12.1897 124.346 11.1883C124.766 10.7059 125.287 10.3216 125.872 10.0624C126.457 9.80327 127.092 9.6756 127.731 9.68841C129.253 9.68841 130.43 10.2135 130.937 11.1041ZM130.301 16.7713C130.517 16.5415 130.684 16.2707 130.794 15.975C130.903 15.6794 130.952 15.3647 130.937 15.0499C130.952 14.7339 130.903 14.4182 130.794 14.1214C130.685 13.8246 130.517 13.5527 130.301 13.3218C130.098 13.1111 129.853 12.9449 129.582 12.8339C129.312 12.7229 129.021 12.6695 128.728 12.6771C128.435 12.6677 128.143 12.7203 127.872 12.8314C127.6 12.9425 127.355 13.1096 127.153 13.3218C126.937 13.5529 126.77 13.8249 126.661 14.1217C126.552 14.4185 126.504 14.7341 126.519 15.0499C126.504 15.3656 126.553 15.6812 126.663 15.9773C126.774 16.2734 126.945 16.5436 127.164 16.7713C127.37 16.9773 127.614 17.1407 127.883 17.2522C128.152 17.3637 128.44 17.421 128.731 17.421C129.023 17.421 129.311 17.3637 129.58 17.2522C129.849 17.1407 130.093 16.9773 130.299 16.7713H130.301Z" fill="#B8C1CB"/>
<path d="M144.855 11.3046C145.867 12.3525 146.39 14.0074 146.235 15.9947H138.563C138.866 17.0249 139.686 17.6408 140.652 17.6408C141.507 17.6408 142.169 17.2265 142.619 16.4001L145.619 17.8513C145.121 18.6601 144.402 19.3097 143.547 19.7234C142.648 20.1722 141.655 20.4 140.65 20.388C139.189 20.4154 137.766 19.9266 136.631 19.0078C135.572 18.1304 134.907 16.7147 134.907 15.0487C134.907 13.3827 135.572 11.947 136.629 11.0609C137.765 10.144 139.187 9.65549 140.647 9.68061C142.371 9.68726 143.842 10.2566 144.855 11.3046ZM140.645 12.4433C140.159 12.424 139.682 12.5735 139.294 12.8665C138.915 13.1808 138.65 13.6103 138.538 14.0894H142.748C142.638 13.6112 142.374 13.1823 141.997 12.8687C141.61 12.5775 141.135 12.4281 140.652 12.4455L140.645 12.4433Z" fill="#B8C1CB"/>
<path d="M150.238 18.9956V24.0003H146.707V9.87226H150.072L150.238 11.1041C150.726 10.1846 151.893 9.68837 153.44 9.68837C154.079 9.67558 154.713 9.80327 155.298 10.0624C155.882 10.3216 156.403 10.7059 156.823 11.1883C157.732 12.1896 158.187 13.4768 158.185 15.0498C158.184 16.6228 157.729 17.9078 156.823 18.9047C156.402 19.3866 155.882 19.7706 155.297 20.0297C154.713 20.2888 154.079 20.4168 153.44 20.4046C151.922 20.4046 150.743 19.8884 150.238 18.9956ZM152.454 12.677C152.16 12.6688 151.867 12.7219 151.595 12.8329C151.323 12.9439 151.076 13.1104 150.872 13.3217C150.656 13.5529 150.489 13.8248 150.38 14.1216C150.271 14.4185 150.223 14.7341 150.238 15.0498C150.223 15.3646 150.271 15.6791 150.38 15.9748C150.489 16.2705 150.656 16.5414 150.872 16.7712C151.291 17.1885 151.858 17.4227 152.449 17.4227C153.04 17.4227 153.608 17.1885 154.027 16.7712C154.239 16.5398 154.404 16.2685 154.512 15.9731C154.62 15.6777 154.668 15.3639 154.654 15.0498C154.668 14.7347 154.62 14.4199 154.512 14.1234C154.405 13.8268 154.24 13.5544 154.027 13.3217C153.824 13.111 153.579 12.9449 153.308 12.8339C153.037 12.7229 152.746 12.6695 152.454 12.677Z" fill="#B8C1CB"/>
<path d="M162.095 20.0361C161.419 19.8266 160.795 19.4765 160.264 19.0088C159.733 18.5411 159.307 17.9663 159.014 17.3222C158.694 16.6075 158.535 15.8317 158.546 15.0491C158.536 14.2644 158.695 13.4867 159.014 12.7694C159.632 11.398 160.726 10.5339 162.095 10.0554C163.517 9.5857 165.052 9.5857 166.473 10.0554C167.845 10.5339 168.939 11.398 169.564 12.7694C169.876 13.4885 170.033 14.2652 170.025 15.0491C170.034 15.8309 169.877 16.6057 169.564 17.3222C169.268 17.9662 168.84 18.5408 168.308 19.0084C167.775 19.476 167.15 19.8262 166.473 20.0361C165.051 20.5036 163.517 20.5036 162.095 20.0361ZM164.284 17.4218C164.577 17.4283 164.868 17.3737 165.139 17.2616C165.41 17.1494 165.655 16.9822 165.857 16.7705C166.073 16.5407 166.241 16.27 166.35 15.9743C166.459 15.6786 166.508 15.364 166.493 15.0491C166.508 14.7332 166.459 14.4175 166.35 14.1207C166.241 13.8238 166.073 13.5519 165.857 13.321C165.436 12.908 164.87 12.6767 164.28 12.6767C163.69 12.6767 163.124 12.908 162.702 13.321C162.487 13.5521 162.32 13.8241 162.211 14.1209C162.102 14.4177 162.054 14.7333 162.069 15.0491C162.054 15.3638 162.102 15.6784 162.211 15.9741C162.32 16.2698 162.487 16.5406 162.702 16.7705C162.907 16.9828 163.153 17.1503 163.425 17.2624C163.697 17.3745 163.99 17.4288 164.284 17.4218Z" fill="#B8C1CB"/>
<path d="M176.115 12.9886C176.079 12.7236 175.946 12.4815 175.741 12.3097C175.536 12.138 175.274 12.049 175.007 12.0603C174.28 12.0603 173.866 12.3261 173.866 12.8047C173.866 13.2832 174.374 13.4959 175.182 13.6909C175.9 13.8659 176.489 14.021 176.955 14.1605C177.409 14.2951 177.853 14.4609 178.284 14.6568C178.636 14.8019 178.963 15.004 179.25 15.255C179.484 15.4836 179.665 15.7609 179.779 16.0672C179.894 16.3735 179.94 16.7013 179.914 17.0274C179.83 19.2251 178.184 20.3927 175.04 20.3927C171.976 20.3927 170.193 19.1985 170.109 17.0695L173.631 16.8102C173.716 17.5015 174.296 17.9512 175.04 17.9512C175.785 17.9512 176.354 17.6477 176.354 17.1248C176.354 16.8479 176.161 16.6086 175.785 16.3982C175.336 16.1614 174.856 15.9905 174.358 15.8908C173.815 15.7535 173.374 15.6427 173.029 15.5408C172.681 15.4519 172.339 15.3386 172.007 15.2018C171.734 15.1006 171.477 14.9627 171.241 14.7919C170.643 14.3489 170.31 13.7152 170.355 12.7138C170.355 10.7199 172.085 9.6875 175.111 9.6875C177.907 9.6875 179.58 10.7819 179.664 12.8047L176.115 12.9886Z" fill="#B8C1CB"/>
<path d="M180.681 8.2046C180.492 8.01768 180.341 7.79501 180.239 7.54952C180.136 7.30402 180.083 7.04059 180.083 6.77451C180.083 6.50843 180.136 6.245 180.239 5.9995C180.341 5.75401 180.492 5.53134 180.681 5.34442C180.866 5.15224 181.089 5.00003 181.336 4.89716C181.582 4.79429 181.847 4.74293 182.114 4.74624C182.382 4.74468 182.646 4.79683 182.893 4.89959C183.14 5.00235 183.363 5.15362 183.55 5.34442C183.739 5.53134 183.89 5.75401 183.992 5.9995C184.095 6.245 184.148 6.50843 184.148 6.77451C184.148 7.04059 184.095 7.30402 183.992 7.54952C183.89 7.79501 183.739 8.01768 183.55 8.2046C183.365 8.39845 183.142 8.55232 182.895 8.65672C182.648 8.76113 182.382 8.81385 182.114 8.81164C181.846 8.81582 181.58 8.76398 181.334 8.65945C181.087 8.55492 180.864 8.39999 180.681 8.2046ZM180.349 9.87063H183.88V20.2302H180.349V9.87063Z" fill="#B8C1CB"/>
<path d="M185.712 7.57227H189.235V9.87193H191.552V12.6125H189.235V16.1794C189.235 16.7953 189.474 17.1719 189.944 17.3203C190.467 17.4731 191.021 17.4891 191.552 17.3669V20.247C190.874 20.3479 190.189 20.3968 189.503 20.3932C188.149 20.3932 187.175 20.0631 186.596 19.4007C186.018 18.7382 185.71 17.7081 185.71 16.299V12.6125H184.458V9.87193H185.71L185.712 7.57227Z" fill="#B8C1CB"/>
<path d="M197.993 12.9891C197.957 12.7241 197.824 12.482 197.619 12.3103C197.414 12.1385 197.152 12.0496 196.885 12.0608C196.158 12.0608 195.744 12.3267 195.744 12.8052C195.744 13.2837 196.251 13.4964 197.06 13.6914C197.778 13.8664 198.365 14.0215 198.832 14.1611C199.286 14.2956 199.731 14.4614 200.162 14.6573C200.514 14.8025 200.841 15.0046 201.128 15.2555C201.362 15.4841 201.542 15.7614 201.657 16.0677C201.772 16.374 201.818 16.7018 201.792 17.0279C201.708 19.2256 200.062 20.3932 196.918 20.3932C193.854 20.3932 192.071 19.199 191.987 17.07L195.509 16.8108C195.593 17.502 196.174 17.9517 196.918 17.9517C197.663 17.9517 198.232 17.6482 198.232 17.1254C198.232 16.8484 198.039 16.6092 197.663 16.3987C197.214 16.1619 196.733 15.991 196.236 15.8913C195.693 15.754 195.252 15.6432 194.907 15.5413C194.559 15.4521 194.219 15.3388 193.887 15.2023C193.609 15.101 193.346 14.9616 193.105 14.788C192.507 14.3449 192.175 13.7113 192.219 12.7099C192.219 10.716 193.947 9.68359 196.974 9.68359C199.772 9.68359 201.444 10.778 201.526 12.8008L197.993 12.9891Z" fill="#B8C1CB"/>
<path d="M202.257 20.0637C202.174 19.985 202.108 19.8898 202.064 19.7841C202.02 19.6784 201.998 19.5646 202 19.45C202.003 19.2204 202.095 19.001 202.258 18.8393C202.421 18.6775 202.642 18.5865 202.871 18.586C202.985 18.585 203.098 18.6069 203.203 18.6503C203.309 18.6937 203.405 18.7577 203.485 18.8385C203.567 18.9172 203.632 19.0119 203.676 19.1167C203.719 19.2215 203.741 19.3342 203.74 19.4478C203.741 19.562 203.72 19.6754 203.676 19.781C203.632 19.8865 203.567 19.982 203.485 20.0615C203.405 20.1433 203.309 20.2082 203.203 20.2524C203.097 20.2965 202.984 20.319 202.869 20.3185C202.755 20.3209 202.642 20.2995 202.536 20.2556C202.431 20.2117 202.336 20.1464 202.257 20.0637Z" fill="#B8C1CB"/>
<path d="M209.653 17.9881L211.029 18.5663C210.734 19.11 210.285 19.5546 209.739 19.8447C209.163 20.1641 208.514 20.3283 207.856 20.321C207.22 20.3292 206.591 20.1824 206.024 19.8934C205.475 19.6096 205.015 19.1804 204.694 18.6527C204.362 18.0912 204.187 17.4508 204.187 16.7984C204.187 16.146 204.362 15.5056 204.694 14.944C205.015 14.4164 205.475 13.9872 206.024 13.7034C206.591 13.4144 207.22 13.2676 207.856 13.2758C208.515 13.2663 209.165 13.4274 209.744 13.7432C210.289 14.0345 210.736 14.4809 211.029 15.026L209.653 15.5998C209.483 15.2714 209.225 14.9973 208.907 14.8088C208.59 14.6204 208.225 14.5252 207.856 14.5342C207.571 14.529 207.288 14.583 207.026 14.6929C206.763 14.8027 206.526 14.9659 206.33 15.1722C206.121 15.386 205.958 15.6397 205.851 15.918C205.743 16.1963 205.693 16.4935 205.703 16.7917C205.691 17.0895 205.741 17.3863 205.849 17.664C205.957 17.9418 206.12 18.1945 206.33 18.4068C206.525 18.6159 206.761 18.782 207.024 18.8946C207.287 19.0071 207.57 19.0636 207.856 19.0604C208.226 19.0688 208.591 18.9726 208.909 18.7829C209.227 18.5932 209.484 18.3177 209.653 17.9881Z" fill="#B8C1CB"/>
<path d="M215.129 20.3207C214.492 20.3289 213.863 20.1822 213.295 19.8931C212.747 19.6093 212.287 19.1801 211.966 18.6525C211.635 18.0905 211.46 17.4502 211.46 16.7981C211.46 16.146 211.635 15.5058 211.966 14.9438C212.287 14.4161 212.747 13.9869 213.295 13.7031C213.865 13.4217 214.492 13.2754 215.128 13.2754C215.764 13.2754 216.391 13.4217 216.962 13.7031C217.514 13.9872 217.979 14.4161 218.306 14.9438C218.637 15.5058 218.812 16.146 218.812 16.7981C218.812 17.4502 218.637 18.0905 218.306 18.6525C217.979 19.1802 217.514 19.609 216.962 19.8931C216.395 20.1821 215.766 20.3289 215.129 20.3207ZM215.129 19.0225C215.413 19.0279 215.696 18.9751 215.959 18.8672C216.222 18.7594 216.46 18.5988 216.658 18.3955C217.061 17.9629 217.285 17.3937 217.285 16.8025C217.285 16.2114 217.061 15.6422 216.658 15.2096C216.251 14.8051 215.701 14.578 215.127 14.578C214.553 14.578 214.003 14.8051 213.596 15.2096C213.189 15.6402 212.963 16.2102 212.963 16.8025C212.963 17.3949 213.189 17.9649 213.596 18.3955C213.796 18.5995 214.036 18.7604 214.3 18.8683C214.565 18.9761 214.848 19.0286 215.134 19.0225H215.129Z" fill="#B8C1CB"/>
<path d="M230.511 14.218C230.895 14.8494 231.059 15.6736 231.059 16.799V20.2286H229.537V16.799C229.537 15.3457 229.067 14.5836 227.953 14.5836C227.691 14.5696 227.43 14.6173 227.19 14.7227C226.95 14.8282 226.739 14.9884 226.572 15.1906C226.225 15.6568 226.05 16.2293 226.078 16.8101V20.2286H224.55V16.799C224.55 15.3457 224.08 14.5836 222.968 14.5836C222.706 14.5693 222.444 14.6168 222.204 14.7222C221.964 14.8277 221.752 14.9881 221.585 15.1906C221.237 15.6526 221.062 16.2215 221.089 16.799V20.2286H219.567V13.3717H221.023L221.089 14.4551C221.503 13.6331 222.272 13.2676 223.506 13.2676C224.666 13.2676 225.427 13.7609 225.79 14.7475C226.233 13.7926 227.166 13.2676 228.5 13.2676C229.446 13.2676 230.121 13.591 230.511 14.218Z" fill="#B8C1CB"/>
<path d="M116.049 15.9244H105.858C105.677 16.1913 105.454 16.427 105.198 16.6222C104.693 17.0082 104.105 17.2707 103.481 17.3888V17.5372H113.811L114.465 18.8665H89.964L90.5999 17.5372H101.01V17.3356C100.453 17.1974 99.9271 16.9553 99.4595 16.6222C99.1789 16.4195 98.9238 16.1837 98.6996 15.9199H88.3822L85.7236 20.0341H118.71L116.049 15.9244Z" fill="#B8C1CB"/>
<path d="M114.467 12.2602C114.468 13.0967 114.383 13.9311 114.215 14.7504C114.133 15.1469 114.031 15.5388 113.909 15.9246C113.836 16.1617 113.754 16.3965 113.665 16.6269C113.546 16.9371 113.417 17.2428 113.273 17.5419C113.054 17.9992 112.809 18.4431 112.537 18.8712H103.481V17.3935C104.105 17.2741 104.693 17.01 105.198 16.6225C105.451 16.4252 105.671 16.188 105.849 15.9202C106.081 15.5661 106.232 15.1652 106.292 14.746C106.317 14.5796 106.329 14.4114 106.328 14.2431C106.328 12.7808 105.486 11.7506 103.625 11.1126L102.34 10.7182C101.737 10.5122 101.478 10.3039 101.478 10.0137C101.478 9.6681 101.806 9.4953 102.286 9.4953C102.951 9.4953 103.543 9.8542 104.023 10.5632L105.986 9.0655C105.745 8.56169 105.394 8.11818 104.96 7.76743C104.525 7.41668 104.017 7.16757 103.474 7.03834V4.9713H101.01V7.07157C99.5459 7.48365 98.5999 8.56701 98.5999 9.99378C98.5999 11.4205 99.5459 12.5194 101.259 13.1242L102.411 13.5053C103.153 13.7623 103.447 13.9329 103.447 14.2962C103.446 14.3882 103.419 14.478 103.37 14.556C103.321 14.634 103.252 14.6973 103.17 14.7393C102.927 14.8617 102.656 14.9189 102.384 14.9055C102.067 14.912 101.751 14.8594 101.453 14.7504C100.871 14.5129 100.381 14.0952 100.053 13.5585L98.4869 14.7504L98.0926 15.0517C98.2555 15.364 98.4532 15.6568 98.6819 15.9246C98.907 16.187 99.1629 16.4213 99.444 16.6225C99.9116 16.9556 100.438 17.1976 100.995 17.3359V18.8579H91.8959C91.6229 18.4308 91.3772 17.9868 91.1604 17.5286C91.0164 17.2295 90.8857 16.9238 90.7682 16.6136C90.6796 16.3921 90.5976 16.1484 90.5245 15.9113C90.4021 15.5255 90.3001 15.1336 90.2188 14.7371C89.8709 13.0581 89.8794 11.3248 90.2436 9.64933C90.6078 7.97383 91.3196 6.39342 92.333 5.01033C93.3464 3.62725 94.6389 2.47228 96.1268 1.62014C97.6147 0.768 99.2648 0.23766 100.971 0.0634219C102.676 -0.110816 104.4 0.0749291 106.029 0.608643C107.659 1.14236 109.158 2.01215 110.43 3.16178C111.702 4.3114 112.719 5.71525 113.414 7.28252C114.11 8.84979 114.468 10.5456 114.467 12.2602Z" fill="#B8C1CB"/>
</svg>
