<svg width="16" height="16" viewBox="0 0 16 16" fill="none" xmlns="http://www.w3.org/2000/svg">
<path fill-rule="evenodd" clip-rule="evenodd" d="M14.6667 8.00065C14.6667 11.6825 11.6819 14.6673 8 14.6673C4.3181 14.6673 1.33334 11.6825 1.33334 8.00065C1.33334 4.31875 4.3181 1.33398 8 1.33398C11.6819 1.33398 14.6667 4.31875 14.6667 8.00065ZM8 6.58398C8.41422 6.58398 8.75 6.91977 8.75 7.33398V10.6673C8.75 11.0815 8.41422 11.4173 8 11.4173C7.58579 11.4173 7.25 11.0815 7.25 10.6673V7.33398C7.25 6.91977 7.58579 6.58398 8 6.58398ZM8 6.00065C8.36819 6.00065 8.66667 5.70217 8.66667 5.33398C8.66667 4.96579 8.36819 4.66732 8 4.66732C7.63181 4.66732 7.33334 4.96579 7.33334 5.33398C7.33334 5.70217 7.63181 6.00065 8 6.00065Z" fill="#0D7FE9"/>
</svg>
